<svg xmlns="http://www.w3.org/2000/svg" width="17.877" height="18.297" viewBox="0 0 17.877 18.297">
  <g id="Group_49" data-name="Group 49" transform="translate(-522.929 -308.012)">
    <path id="Path_133" data-name="Path 133" d="M79.7,600.331s-.261,1.283,2.007,3.551c2.229,2.229,3.6,2.239,3.6,2.239l.926-1.7,5.456,1.209a3.778,3.778,0,0,1-.258,2.5c-.617,1.261-6.272,3.493-11.773-2.007-5.694-5.694-3.461-11.323-2.072-11.76a4.815,4.815,0,0,1,2.548-.1l1.133,4.992Z" transform="translate(447.333 -283.728)" fill="none" stroke="#0040bf" stroke-linecap="round" stroke-linejoin="round" stroke-width="0.75"/>
    <path id="Path_159" data-name="Path 159" d="M94.837,592.629a8.042,8.042,0,0,1,9.037,9.018" transform="translate(435.021 -282.699)" fill="none" stroke="#0040bf" stroke-linecap="round" stroke-linejoin="round" stroke-width="0.75"/>
    <path id="Path_160" data-name="Path 160" d="M97.789,596.728a6.59,6.59,0,0,1,6.628,6.6" transform="translate(433.095 -285.42)" fill="none" stroke="#0040bf" stroke-linecap="round" stroke-linejoin="round" stroke-width="0.75"/>
    <path id="Path_161" data-name="Path 161" d="M92.078,588.645a9.483,9.483,0,0,1,11.31,11.149" transform="translate(436.822 -280.004)" fill="none" stroke="#0040bf" stroke-linecap="round" stroke-linejoin="round" stroke-width="0.75"/>
  </g>
</svg>
