<svg xmlns="http://www.w3.org/2000/svg" width="24.227" height="24.802" viewBox="0 0 24.227 24.802">
  <g id="call-notif" transform="translate(-522.929 -307.998)">
    <path id="Path_133" data-name="Path 133" d="M81.085,602.629s-.357,1.759,2.752,4.868c3.055,3.056,4.938,3.069,4.938,3.069l1.27-2.328,7.479,1.658a5.179,5.179,0,0,1-.353,3.422c-.846,1.729-8.6,4.789-16.138-2.751-7.8-7.8-4.745-15.522-2.84-16.121a6.6,6.6,0,0,1,3.492-.141l1.553,6.843Z" transform="translate(447.333 -282.993)" fill="none" stroke="#0040bf" stroke-linecap="round" stroke-linejoin="round" stroke-width="0.75"/>
    <path id="Path_159" data-name="Path 159" d="M94.837,592.654a11.025,11.025,0,0,1,12.388,12.362" transform="translate(437.451 -282.167)" fill="none" stroke="#0040bf" stroke-linecap="round" stroke-linejoin="round" stroke-width="0.75"/>
    <path id="Path_160" data-name="Path 160" d="M97.789,596.728a9.034,9.034,0,0,1,9.086,9.049" transform="translate(435.905 -284.35)" fill="none" stroke="#0040bf" stroke-linecap="round" stroke-linejoin="round" stroke-width="0.75"/>
    <path id="Path_161" data-name="Path 161" d="M92.078,588.724a13,13,0,0,1,15.5,15.283" transform="translate(438.896 -280.004)" fill="none" stroke="#0040bf" stroke-linecap="round" stroke-linejoin="round" stroke-width="0.75"/>
  </g>
</svg>
