<svg xmlns="http://www.w3.org/2000/svg" width="63.098" height="23.547" viewBox="0 0 63.098 23.547">
  <g id="car-add" transform="translate(-232.5 -32.953)">
    <g id="Group_104" data-name="Group 104" transform="translate(1117 120.22)">
      <path id="Path_112" data-name="Path 112" d="M91.871,153.722l-19.09-3.013-3.923,1.822,3.538,4.694,19.685,1.261" transform="translate(-933.523 -228.634)" fill="none" stroke="#0040bf" stroke-linecap="round" stroke-linejoin="round" stroke-width="1"/>
      <path id="Path_113" data-name="Path 113" d="M49.918,160.518a5.937,5.937,0,1,1-5.937-5.937A5.937,5.937,0,0,1,49.918,160.518Z" transform="translate(-917.28 -230.675)" fill="none" stroke="#0040bf" stroke-linecap="round" stroke-miterlimit="10" stroke-width="1"/>
      <path id="Path_114" data-name="Path 114" d="M50.258,163.827a2.969,2.969,0,1,1-2.969-2.968A2.969,2.969,0,0,1,50.258,163.827Z" transform="translate(-920.589 -233.984)" fill="none" stroke="#0040bf" stroke-linecap="round" stroke-miterlimit="10" stroke-width="1"/>
      <path id="Path_115" data-name="Path 115" d="M133.252,160.518a5.937,5.937,0,1,1-5.937-5.937A5.937,5.937,0,0,1,133.252,160.518Z" transform="translate(-961.208 -230.675)" fill="none" stroke="#0040bf" stroke-linecap="round" stroke-miterlimit="10" stroke-width="1"/>
      <path id="Path_116" data-name="Path 116" d="M133.591,163.827a2.969,2.969,0,1,1-2.969-2.968A2.969,2.969,0,0,1,133.591,163.827Z" transform="translate(-964.516 -233.984)" fill="none" stroke="#0040bf" stroke-linecap="round" stroke-miterlimit="10" stroke-width="1"/>
      <path id="Path_117" data-name="Path 117" d="M31.017,152.67h-.876l-2.171-2.907v-4.046h3.835l1.3-2.347-1.243-2.855H28.04v-1.629l14.869-4.624,12.733-.035a19.454,19.454,0,0,1,7.338,1.524,59.831,59.831,0,0,1,8.46,5.324H76.5a15.584,15.584,0,0,1,6.077,1.1,45.548,45.548,0,0,1,6.41,4.273l-1.4,3.258v2.82H85.8" transform="translate(-911.97 -219.946)" fill="none" stroke="#0040bf" stroke-linecap="round" stroke-linejoin="round" stroke-width="1"/>
      <line id="Line_6" data-name="Line 6" x2="24.497" transform="translate(-865.828 -67.311)" fill="none" stroke="#0040bf" stroke-linecap="round" stroke-miterlimit="10" stroke-width="1"/>
      <line id="Line_7" data-name="Line 7" y2="4.746" transform="translate(-882.669 -79.261)" fill="none" stroke="#0040bf" stroke-linecap="round" stroke-miterlimit="10" stroke-width="1"/>
      <path id="Path_118" data-name="Path 118" d="M70.448,142.768h8.775a22.563,22.563,0,0,0-6.568-3.967,19.973,19.973,0,0,0-5.412-1l-11.4.053-5.464,1.681Z" transform="translate(-923.781 -221.831)" fill="none" stroke="#0040bf" stroke-linecap="round" stroke-linejoin="round" stroke-width="1"/>
    </g>
    <g id="Group_103" data-name="Group 103" transform="translate(288.555 33.953)">
      <line id="Line_52" data-name="Line 52" y2="6.043" transform="translate(3.022 0)" fill="none" stroke="#0040bf" stroke-linecap="round" stroke-width="2"/>
      <line id="Line_51" data-name="Line 51" y2="6.043" transform="translate(6.043 3.022) rotate(90)" fill="none" stroke="#0040bf" stroke-linecap="round" stroke-width="2"/>
    </g>
  </g>
</svg>
