<?xml version='1.0' encoding='utf-8'?>
<!DOCTYPE svg PUBLIC '-//W3C//DTD SVG 1.1//EN' 'http://www.w3.org/Graphics/SVG/1.1/DTD/svg11.dtd'>
<svg version="1.1" xmlns="http://www.w3.org/2000/svg" viewBox="0 0 512 512" xmlns:xlink="http://www.w3.org/1999/xlink" enable-background="new 0 0 512 512">
  <g>
    <g>
      <path d="m480.4,15.8h-95.4c-10,0-18.6,7.2-20.3,17.1l-46,265.2h-226.9l-40.6-126c-3.5-10.8-15.1-16.8-26-13.3-10.8,3.5-16.8,15.1-13.3,26l45.2,140.3c2.7,8.5 10.7,14.3 19.6,14.3h259.3c10,0 18.6-7.2 20.3-17.1l46-265.2h78c11.4,0 20.6-9.2 20.6-20.6 0.1-11.4-9.1-20.7-20.5-20.7z"/>
      <path d="m293.1,373.8c-33.4,0-60.5,27.7-60.5,61.7 0,34 27.1,61.7 60.5,61.7 33.4,0 60.5-27.7 60.5-61.7 0-34-27.2-61.7-60.5-61.7zm0,82.1c-10.6,0-19.2-9.2-19.2-20.4 0-11.3 8.6-20.4 19.2-20.4 10.6,0 19.2,9.2 19.2,20.4 0,11.2-8.6,20.4-19.2,20.4z"/>
      <path d="m133,373.8c-33.4,0-60.5,27.7-60.5,61.7 0,34 27.1,61.7 60.5,61.7s60.5-27.7 60.5-61.7c0-34-27.2-61.7-60.5-61.7zm0,82.1c-10.6,0-19.2-9.2-19.2-20.4 0-11.3 8.6-20.4 19.2-20.4 10.6,0 19.2,9.2 19.2,20.4 0,11.2-8.6,20.4-19.2,20.4z"/>
      <path d="m126.3,154.2c9.5,6.2 22.3,3.5 28.5-6l28.3-43.3v129.6c0,11.4 9.2,20.6 20.6,20.6s20.6-9.2 20.6-20.6v-129.6l28.3,43.3c3.9,6.1 10.6,9.4 17.3,9.4 3.9,0 7.8-1.1 11.3-3.3 9.5-6.2 12.2-19 6-28.6l-66.2-101.5c-3.8-5.8-10.3-9.4-17.3-9.4-7,0-13.5,3.5-17.3,9.4l-66.2,101.4c-6.1,9.6-3.4,22.4 6.1,28.6z"/>
    </g>
  </g>
</svg>
