<svg xmlns="http://www.w3.org/2000/svg" width="24" height="24" viewBox="0 0 24 24">
  <g id="Group_275" data-name="Group 275" transform="translate(-128 -2872)">
    <text id="DOC" transform="translate(140 2892)" fill="#fff" font-size="10" font-family="Titillium-Bold, Titillium" font-weight="700" letter-spacing="0.01em"><tspan x="-9.265" y="0">DOC</tspan></text>
    <g id="Group_230" data-name="Group 230" transform="translate(-165 -108)">
      <g id="Group_226" data-name="Group 226" transform="translate(293 2980)">
        <g id="Path_167" data-name="Path 167" transform="translate(0)" fill="none">
          <path d="M3,0H21a3,3,0,0,1,3,3V21a3,3,0,0,1-3,3H3a3,3,0,0,1-3-3V3A3,3,0,0,1,3,0Z" stroke="none"/>
          <path d="M 2.999998092651367 0.9999980926513672 C 1.897199630737305 0.9999980926513672 0.9999980926513672 1.897199630737305 0.9999980926513672 2.999998092651367 L 0.9999980926513672 21 C 0.9999980926513672 22.10279846191406 1.897199630737305 23 2.999998092651367 23 L 21 23 C 22.10279846191406 23 23 22.10279846191406 23 21 L 23 2.999998092651367 C 23 1.897199630737305 22.10279846191406 0.9999980926513672 21 0.9999980926513672 L 2.999998092651367 0.9999980926513672 M 2.999998092651367 -1.9073486328125e-06 L 21 -1.9073486328125e-06 C 22.6568489074707 -1.9073486328125e-06 24 1.343149185180664 24 2.999998092651367 L 24 21 C 24 22.6568489074707 22.6568489074707 24 21 24 L 2.999998092651367 24 C 1.343149185180664 24 -1.9073486328125e-06 22.6568489074707 -1.9073486328125e-06 21 L -1.9073486328125e-06 2.999998092651367 C -1.9073486328125e-06 1.343149185180664 1.343149185180664 -1.9073486328125e-06 2.999998092651367 -1.9073486328125e-06 Z" stroke="none" fill="#fff"/>
        </g>
        <g id="Path_168" data-name="Path 168" transform="translate(3.657)" fill="none">
          <path d="M0,0H16.685V5.747c0,1.731-1.724,3.135-3.85,3.135H3.85C1.724,8.882,0,7.478,0,5.747Z" stroke="none"/>
          <path d="M 0.9999990463256836 0.9999995231628418 L 0.9999990463256836 5.747119426727295 C 0.9999990463256836 6.277909278869629 1.269598960876465 6.789709568023682 1.759139060974121 7.188259601593018 C 2.308579444885254 7.63556957244873 3.051299095153809 7.881919384002686 3.850499153137207 7.881919384002686 L 12.83498954772949 7.881919384002686 C 13.63418960571289 7.881919384002686 14.37690925598145 7.63556957244873 14.9263391494751 7.188259601593018 C 15.41587924957275 6.789719581604004 15.68547916412354 6.277909278869629 15.68547916412354 5.747119426727295 L 15.68547916412354 0.9999995231628418 L 0.9999990463256836 0.9999995231628418 M 0 -9.5367431640625e-07 L 16.68547821044922 -9.5367431640625e-07 L 16.68547821044922 5.747119426727295 C 16.68547821044922 7.478419303894043 14.9615592956543 8.881919860839844 12.83498954772949 8.881919860839844 L 3.850499153137207 8.881919860839844 C 1.723929405212402 8.881919860839844 0 7.478419303894043 0 5.747119426727295 L 0 -9.5367431640625e-07 Z" stroke="none" fill="#fff"/>
        </g>
        <path id="Path_169" data-name="Path 169" d="M0,0V3.135" transform="translate(16.8 2.873)" fill="none" stroke="#fff" stroke-linecap="round" stroke-width="1"/>
      </g>
    </g>
  </g>
</svg>
