<svg xmlns="http://www.w3.org/2000/svg" width="22.74" height="22.547" viewBox="0 0 22.74 22.547">
  <g id="edit" transform="translate(-85.5 -25.5)">
    <g id="Group_52" data-name="Group 52" transform="translate(86 26)">
      <path id="Path_136" data-name="Path 136" d="M101.942,864.437v11.011a2.32,2.32,0,0,1-2.314,2.314H82.876a2.32,2.32,0,0,1-2.314-2.314v-16.8a2.321,2.321,0,0,1,2.314-2.314H93.93" transform="translate(-80.562 -856.215)" fill="none" stroke="#0040bf" stroke-linecap="round" stroke-linejoin="round" stroke-width="1"/>
      <path id="Path_137" data-name="Path 137" d="M103.341,860.875,92.889,871.327c-1.084,1.083-6.662,4.889-7.744,3.805s2.721-6.66,3.8-7.743L99.4,856.937a2.785,2.785,0,1,1,3.939,3.938Z" transform="translate(-82.413 -856.124)" fill="none" stroke="#0040bf" stroke-linecap="round" stroke-linejoin="round" stroke-width="1"/>
      <path id="Path_138" data-name="Path 138" d="M91.523,875.714c.633-.633,2.037-.265,3.12.819s1.451,2.487.818,3.12" transform="translate(-85.183 -864.253)" fill="none" stroke="#0040bf" stroke-linecap="round" stroke-linejoin="round" stroke-width="1"/>
      <path id="Path_139" data-name="Path 139" d="M108.634,858.6c.633-.633,2.037-.264,3.12.819s1.451,2.487.818,3.119" transform="translate(-92.397 -857.039)" fill="none" stroke="#0040bf" stroke-linecap="round" stroke-linejoin="round" stroke-width="1"/>
    </g>
  </g>
</svg>
