<svg xmlns="http://www.w3.org/2000/svg" width="64" height="64" viewBox="0 0 48 48">
  <g id="Egalik" transform="translate(-72 -120)">
    <rect id="Rectangle_25" data-name="Rectangle 25" width="48" height="48" transform="translate(72 120)" fill="none"/>
    <text id="Egalik-2" data-name="Egalik" transform="translate(96 162)" fill="#003fbf" font-size="12" font-family="Titillium-Regular, Titillium" letter-spacing="0.01em"><tspan x="-15.198" y="0">Egalik</tspan></text>
    <g id="Group_44" data-name="Group 44" transform="translate(35.169 -100.655)">
      <path id="Path_121" data-name="Path 121" d="M56.25,267.33v1.681l-3.177,1.142a1.777,1.777,0,0,0-1.24,1.7,3.531,3.531,0,0,0,.174,1.317c1.884,2.331,9.5,2.065,11.619-.055.223-.223.2-1.262.2-1.262a1.828,1.828,0,0,0-1.3-1.7L59.4,269.011V267.33" transform="translate(0 -27.156)" fill="none" stroke="#0040bf" stroke-linecap="round" stroke-linejoin="round" stroke-width="0.75"/>
      <path id="Path_122" data-name="Path 122" d="M66.979,248.612c0,2.082-1.406,3.769-3.141,3.769s-3.141-1.687-3.141-3.769,1.406-3.768,3.141-3.768S66.979,246.531,66.979,248.612Z" transform="translate(-6.068 -11.765)" fill="none" stroke="#0040bf" stroke-miterlimit="10" stroke-width="0.75"/>
      <path id="Path_123" data-name="Path 123" d="M76.567,234.6h7.257v-6.942H71.834v3.155" transform="translate(-13.691 0)" fill="none" stroke="#0040bf" stroke-linecap="round" stroke-linejoin="round" stroke-width="0.75"/>
      <line id="Line_8" data-name="Line 8" x2="8.683" transform="translate(60.102 229.192)" fill="none" stroke="#0040bf" stroke-linecap="round" stroke-linejoin="round" stroke-width="0.75"/>
      <line id="Line_9" data-name="Line 9" x2="7.714" transform="translate(61.097 231.082)" fill="none" stroke="#0040bf" stroke-linecap="round" stroke-linejoin="round" stroke-width="0.75"/>
      <line id="Line_10" data-name="Line 10" x2="6.768" transform="translate(62.082 232.981)" fill="none" stroke="#0040bf" stroke-linecap="round" stroke-linejoin="round" stroke-width="0.75"/>
    </g>
  </g>
</svg>
