<svg xmlns="http://www.w3.org/2000/svg" width="64" height="64" viewBox="0 0 48 48">
  <g id="Gps" transform="translate(-128 -120)">
    <rect id="Rectangle_26" data-name="Rectangle 26" width="48" height="48" transform="translate(128 120)" fill="none"/>
    <text id="Gps-2" data-name="Gps" transform="translate(152 162)" fill="#0040bf" font-size="12" font-family="Titillium-Regular, Titillium" letter-spacing="0.01em"><tspan x="-9.768" y="0">Gps</tspan></text>
    <g id="Group_46" data-name="Group 46" transform="translate(-365.232 97.548)">
      <path id="Path_152" data-name="Path 152" d="M98.59,323.117c-.567.567-1.3.751-1.644.41s-.157-1.077.41-1.644,1.3-.751,1.644-.41S99.157,322.549,98.59,323.117Z" transform="translate(423.709 -287.592)" fill="none" stroke="#0040bf" stroke-linecap="round" stroke-linejoin="round" stroke-width="0.75"/>
      <path id="Path_153" data-name="Path 153" d="M105.781,314.306c.48-.48,1.1-.635,1.391-.347s.133.911-.347,1.391-1.1.635-1.391.347S105.3,314.786,105.781,314.306Z" transform="translate(418.255 -282.796)" fill="none" stroke="#0040bf" stroke-linecap="round" stroke-linejoin="round" stroke-width="0.75"/>
      <rect id="Rectangle_33" data-name="Rectangle 33" width="2.34" height="5.267" transform="matrix(0.707, -0.707, 0.707, 0.707, 519.418, 42.937)" stroke-width="0.75" stroke="#0040bf" stroke-linecap="round" stroke-linejoin="round" fill="none"/>
      <line id="Line_20" data-name="Line 20" x1="0.459" y1="0.459" transform="translate(519.795 41.595)" fill="none" stroke="#0040bf" stroke-linecap="round" stroke-linejoin="round" stroke-width="0.75"/>
      <rect id="Rectangle_34" data-name="Rectangle 34" width="2.34" height="5.267" transform="matrix(0.707, -0.707, 0.707, 0.707, 509.95, 33.469)" stroke-width="0.75" stroke="#0040bf" stroke-linecap="round" stroke-linejoin="round" fill="none"/>
      <line id="Line_21" data-name="Line 21" x2="0.429" y2="0.429" transform="translate(514.558 36.358)" fill="none" stroke="#0040bf" stroke-linecap="round" stroke-linejoin="round" stroke-width="0.75"/>
      <rect id="Rectangle_35" data-name="Rectangle 35" width="2.34" height="5.267" transform="matrix(0.707, -0.707, 0.707, 0.707, 521.781, 40.575)" stroke-width="0.75" stroke="#0040bf" stroke-linecap="round" stroke-linejoin="round" fill="none"/>
      <line id="Line_22" data-name="Line 22" x1="0.436" y1="0.436" transform="translate(522.181 39.256)" fill="none" stroke="#0040bf" stroke-linecap="round" stroke-linejoin="round" stroke-width="0.75"/>
      <rect id="Rectangle_36" data-name="Rectangle 36" width="2.34" height="5.267" transform="matrix(0.707, -0.707, 0.707, 0.707, 512.312, 31.107)" stroke-width="0.75" stroke="#0040bf" stroke-linecap="round" stroke-linejoin="round" fill="none"/>
      <line id="Line_23" data-name="Line 23" x2="0.429" y2="0.429" transform="translate(516.92 33.995)" fill="none" stroke="#0040bf" stroke-linecap="round" stroke-linejoin="round" stroke-width="0.75"/>
      <line id="Line_24" data-name="Line 24" x1="0.767" y2="0.767" transform="translate(522.748 33.075)" fill="none" stroke="#0040bf" stroke-linecap="round" stroke-linejoin="round" stroke-width="0.75"/>
      <line id="Line_25" data-name="Line 25" y1="0.856" x2="0.856" transform="translate(514.445 41.289)" fill="none" stroke="#0040bf" stroke-linecap="round" stroke-linejoin="round" stroke-width="0.75"/>
      <path id="Path_154" data-name="Path 154" d="M79.662,339.622l.978.994a2.822,2.822,0,0,0-3.785-3.785l1.026,1" transform="translate(436.47 -297.352)" fill="none" stroke="#0040bf" stroke-linecap="round" stroke-linejoin="round" stroke-width="0.75"/>
      <path id="Path_155" data-name="Path 155" d="M64.1,334.774a8.319,8.319,0,0,0,9.328,9.348" transform="translate(444.687 -296.223)" fill="none" stroke="#0040bf" stroke-linecap="round" stroke-linejoin="round" stroke-width="0.75"/>
      <path id="Path_156" data-name="Path 156" d="M68.2,337.726a6.817,6.817,0,0,0,6.828,6.857" transform="translate(442.016 -298.115)" fill="none" stroke="#0040bf" stroke-linecap="round" stroke-linejoin="round" stroke-width="0.75"/>
      <path id="Path_157" data-name="Path 157" d="M60.122,332.016a9.809,9.809,0,0,0,11.533,11.7" transform="translate(447.333 -294.457)" fill="none" stroke="#0040bf" stroke-linecap="round" stroke-linejoin="round" stroke-width="0.75"/>
      <path id="Path_158" data-name="Path 158" d="M87.223,325.469a2.823,2.823,0,1,0,2.033,2.172" transform="translate(432.11 -290.2)" fill="none" stroke="#0040bf" stroke-linecap="round" stroke-linejoin="round" stroke-width="0.75"/>
    </g>
  </g>
</svg>
