<svg xmlns="http://www.w3.org/2000/svg" width="28" height="28" viewBox="0 0 16.021 20.75">
  <g id="Group_51" data-name="Group 51" transform="translate(-526.564 -493.48)">
    <path id="Path_134" data-name="Path 134" d="M94.873,788.814V788.8a.747.747,0,0,0-.074-.294l-.169-.34-1-2.354a4.624,4.624,0,0,1-.367-1.831l.021-3.961a6.9,6.9,0,0,0-.526-2.765,5.434,5.434,0,0,0-5-3.383c-.077,0-.159-.005-.238-.009s-.168-.009-.256-.009H87.22c-.089,0-.171.006-.257.009s-.162,0-.239.009a5.434,5.434,0,0,0-5,3.383,6.876,6.876,0,0,0-.526,2.765l.021,3.961a4.633,4.633,0,0,1-.367,1.831l-1,2.354-.17.34a.747.747,0,0,0-.074.294v.011a.739.739,0,0,0,0,.1.709.709,0,0,0,.708.7H94.167a.71.71,0,0,0,.709-.7A.833.833,0,0,0,94.873,788.814Z" transform="translate(447.333 -280.004)" fill="none" stroke="#0040bf" stroke-miterlimit="10" stroke-width="0.75"/>
    <path id="Path_135" data-name="Path 135" d="M94.125,806.8a2.433,2.433,0,1,1-4.866,0" transform="translate(442.827 -295.382)" fill="none" stroke="#0040bf" stroke-linecap="round" stroke-linejoin="round" stroke-width="0.75"/>
  </g>
</svg>
