<svg xmlns="http://www.w3.org/2000/svg" width="15.02" height="17.903" viewBox="0 0 15.02 17.903">
  <g id="HaridIcon" transform="translate(301.375 -766.57)">
    <g id="Group_96" data-name="Group 96" transform="translate(-301 770.993)">
      <path id="Path_129" data-name="Path 129" d="M59.155,517.766h2.758l1.224,3.546.845,5.157s.1,1.171,1.069,1.188,5.792,0,5.792,0a1.24,1.24,0,0,0,1.241-1.123c.276-1.2,1.327-5.157,1.327-5.157H65.758" transform="translate(-59.155 -517.766)" fill="none" stroke="#0040bf" stroke-linecap="round" stroke-linejoin="round" stroke-width="0.75"/>
      <path id="Path_130" data-name="Path 130" d="M78,557.154a.977.977,0,1,1-.975-.92A.949.949,0,0,1,78,557.154Z" transform="translate(-70.807 -544.97)" fill="none" stroke="#0040bf" stroke-linecap="round" stroke-linejoin="round" stroke-width="0.75"/>
      <path id="Path_131" data-name="Path 131" d="M93.469,557.154a.977.977,0,1,1-.976-.92A.949.949,0,0,1,93.469,557.154Z" transform="translate(-81.476 -544.97)" fill="none" stroke="#0040bf" stroke-linecap="round" stroke-linejoin="round" stroke-width="0.75"/>
    </g>
    <path id="Path_128" data-name="Path 128" d="M83.278,405.617l-2.836-2.668h1.79a3.89,3.89,0,0,1,1.805-3.422,5.274,5.274,0,0,1,4-.224,3.8,3.8,0,0,0-3.087,1.227,4.608,4.608,0,0,0-.643,2.419h1.779Z" transform="translate(-374.772 367.996)" fill="none" stroke="#0040bf" stroke-linecap="round" stroke-linejoin="round" stroke-width="0.75"/>
  </g>
</svg>
