<svg xmlns="http://www.w3.org/2000/svg" width="15.017" height="18.39" viewBox="0 0 15.017 18.39">
  <g id="SotuvIcon" transform="translate(319.375 -765.625)">
    <g id="Group_95" data-name="Group 95" transform="translate(-319 770.795)">
      <path id="Path_129" data-name="Path 129" d="M59.155,517.766h2.7l1.2,3.476.828,5.055s.1,1.148,1.047,1.164,5.677,0,5.677,0a1.215,1.215,0,0,0,1.217-1.1c.27-1.18,1.3-5.055,1.3-5.055h-7.5" transform="translate(-59.155 -517.766)" fill="none" stroke="#0040bf" stroke-linecap="round" stroke-linejoin="round" stroke-width="0.75"/>
      <path id="Path_130" data-name="Path 130" d="M77.961,557.136a.957.957,0,1,1-.956-.9A.93.93,0,0,1,77.961,557.136Z" transform="translate(-70.911 -545.193)" fill="none" stroke="#0040bf" stroke-linecap="round" stroke-linejoin="round" stroke-width="0.75"/>
      <path id="Path_131" data-name="Path 131" d="M93.43,557.136a.958.958,0,1,1-.956-.9A.93.93,0,0,1,93.43,557.136Z" transform="translate(-81.675 -545.193)" fill="none" stroke="#0040bf" stroke-linecap="round" stroke-linejoin="round" stroke-width="0.75"/>
    </g>
    <path id="Path_132" data-name="Path 132" d="M91.378,503.729l-2.59-2.671v1.686a3.822,3.822,0,0,0-3.322,1.7,4.833,4.833,0,0,0-.217,3.773,3.519,3.519,0,0,1,1.191-2.908,4.584,4.584,0,0,1,2.348-.605v1.676Z" transform="translate(-396.111 264.942)" fill="none" stroke="#0040bf" stroke-linecap="round" stroke-linejoin="round" stroke-width="0.75"/>
  </g>
</svg>
