<svg xmlns="http://www.w3.org/2000/svg" width="64" height="64" viewBox="0 0 48 48">
  <g id="Yili" transform="translate(-16 -120)">
    <rect id="Rectangle_18" data-name="Rectangle 18" width="48" height="48" transform="translate(16 120)" fill="none"/>
    <text id="Yili-2" data-name="Yili" transform="translate(40 162)" fill="#0040bf" font-size="12" font-family="Titillium-Regular, Titillium" letter-spacing="0.01em"><tspan x="-7.422" y="0">Yili</tspan></text>
    <g id="Group_45" data-name="Group 45" transform="translate(-453.303 300.997)">
      <path id="Path_112" data-name="Path 112" d="M82.067,152.439,71.11,150.709l-2.252,1.046,2.031,2.694,11.3.724" transform="translate(417.543 -312.573)" fill="none" stroke="#0040bf" stroke-linecap="round" stroke-linejoin="round" stroke-width="0.75"/>
      <path id="Path_113" data-name="Path 113" d="M44.86,157.989a3.408,3.408,0,1,1-3.408-3.408A3.408,3.408,0,0,1,44.86,157.989Z" transform="translate(439.993 -315.394)" fill="none" stroke="#0040bf" stroke-linecap="round" stroke-miterlimit="10" stroke-width="0.75"/>
      <path id="Path_114" data-name="Path 114" d="M47.729,162.563a1.7,1.7,0,1,1-1.7-1.7A1.7,1.7,0,0,1,47.729,162.563Z" transform="translate(435.42 -319.968)" fill="none" stroke="#0040bf" stroke-linecap="round" stroke-miterlimit="10" stroke-width="0.75"/>
      <path id="Path_115" data-name="Path 115" d="M128.193,157.989a3.408,3.408,0,1,1-3.408-3.408A3.408,3.408,0,0,1,128.193,157.989Z" transform="translate(379.278 -315.394)" fill="none" stroke="#0040bf" stroke-linecap="round" stroke-miterlimit="10" stroke-width="0.75"/>
      <path id="Path_116" data-name="Path 116" d="M131.062,162.563a1.7,1.7,0,1,1-1.7-1.7A1.7,1.7,0,0,1,131.062,162.563Z" transform="translate(374.706 -319.968)" fill="none" stroke="#0040bf" stroke-linecap="round" stroke-miterlimit="10" stroke-width="0.75"/>
      <path id="Path_117" data-name="Path 117" d="M29.719,144.813h-.5l-1.246-1.669v-2.322h2.2l.744-1.347-.714-1.639H28.01V136.9l8.535-2.654,7.308-.02a11.167,11.167,0,0,1,4.212.875,34.343,34.343,0,0,1,4.856,3.056h2.905a8.945,8.945,0,0,1,3.488.633,26.144,26.144,0,0,1,3.679,2.453l-.8,1.87v1.619H61.164" transform="translate(447.333 -300.565)" fill="none" stroke="#0040bf" stroke-linecap="round" stroke-linejoin="round" stroke-width="0.75"/>
      <line id="Line_6" data-name="Line 6" x2="14.061" transform="translate(485.734 -155.771)" fill="none" stroke="#0040bf" stroke-linecap="round" stroke-miterlimit="10" stroke-width="0.75"/>
      <line id="Line_7" data-name="Line 7" y2="2.724" transform="translate(476.067 -162.63)" fill="none" stroke="#0040bf" stroke-linecap="round" stroke-miterlimit="10" stroke-width="0.75"/>
      <path id="Path_118" data-name="Path 118" d="M61.9,140.653h5.037a12.951,12.951,0,0,0-3.77-2.277,11.465,11.465,0,0,0-3.106-.573l-6.544.03-3.136.965Z" transform="translate(431.008 -303.17)" fill="none" stroke="#0040bf" stroke-linecap="round" stroke-linejoin="round" stroke-width="0.75"/>
      <path id="Path_119" data-name="Path 119" d="M122.2,110.742a4.735,4.735,0,1,1-4.735-4.735A4.735,4.735,0,0,1,122.2,110.742Z" transform="translate(385.581 -280.004)" fill="none" stroke="#0040bf" stroke-linecap="round" stroke-miterlimit="10" stroke-width="0.75"/>
      <path id="Path_120" data-name="Path 120" d="M122.5,110.339v3.539h-2.865" transform="translate(380.548 -283.16)" fill="none" stroke="#0040bf" stroke-linecap="round" stroke-linejoin="round" stroke-width="0.75"/>
    </g>
  </g>
</svg>
