<svg width="345" height="244" viewBox="0 0 345 244" fill="none" xmlns="http://www.w3.org/2000/svg">
<g clip-path="url(#clip0)">
<path d="M16.2486 179.726C16.2486 184.213 12.6109 187.851 8.12357 187.851C3.63627 187.851 -0.00143433 184.213 -0.00143433 179.726C-0.00143433 175.238 3.63627 171.601 8.12357 171.601C12.6109 171.601 16.2486 175.238 16.2486 179.726Z" fill="#E1E6E9"/>
<path d="M28.3914 167.676C28.3914 170.339 26.2328 172.497 23.57 172.497C20.9072 172.497 18.7486 170.339 18.7486 167.676C18.7486 165.013 20.9072 162.854 23.57 162.854C26.2328 162.854 28.3914 165.013 28.3914 167.676Z" fill="#C8D0D3"/>
<path d="M27.6786 190.796C27.6786 197.453 22.282 202.85 15.6246 202.85C8.96757 202.85 3.57057 197.453 3.57057 190.796C3.57057 184.139 8.96717 178.742 15.6246 178.742C22.2816 178.742 27.6786 184.138 27.6786 190.796Z" fill="#E1E6E9"/>
<path d="M22.14 187.67C22.14 191.516 19.022 194.634 15.1757 194.634C11.3294 194.634 8.2114 191.516 8.2114 187.67C8.2114 183.824 11.3294 180.706 15.1757 180.706C19.022 180.706 22.14 183.824 22.14 187.67Z" fill="#C8D0D3"/>
<path d="M15.9625 182.845C15.9625 185.656 13.604 187.935 10.6946 187.935C7.78523 187.935 5.42683 185.656 5.42683 182.845C5.42683 180.035 7.78533 177.756 10.6946 177.756C13.604 177.756 15.9625 180.035 15.9625 182.845Z" fill="#C8D0D3"/>
<path d="M46.6 161.96C39.6323 143.506 56.825 145.512 59.457 149.639C76.429 151.052 77.147 159.896 77.85 168.746C83.5643 168.882 89.279 167.958 94.993 180.532C107.411 170.42 115.08 175.609 123.386 178.746L146.243 188.211L94.636 212.497L41.6 230.711C15.784 226.052 26.839 200.178 36.4214 195.175C29.95 185.454 37.9108 178.084 41.7786 175.889C36.6811 169.605 41.4775 162.156 46.6 161.96V161.96Z" fill="#E1E6E9"/>
<path d="M94.67 187.02C85.5786 179.588 76.487 174.418 67.396 177.676C67.3292 173.766 67.0821 169.956 61.0825 169.342C61.8504 168.08 62.4756 166.817 61.5876 165.554C71.2649 168.634 74.7076 154.75 64.3655 153.937C64.0609 145.768 49.5285 147.739 53.5065 157.22C48.0587 158.127 43.0235 159.517 45.1727 169.342C37.7217 173.967 36.5759 184.11 45.6778 190.303C45.021 191.94 45.5095 193.291 46.1828 194.596C20.1928 202.967 27.6958 242.622 60.5778 232.982C69.1852 236.876 84.1408 239.144 94.9228 223.891C102.616 233.981 108.698 230.267 122.955 230.457L138.612 209.749L129.52 183.485C115.609 174.603 104.206 176.719 94.6704 187.02L94.67 187.02Z" fill="#C8D0D3"/>
<path d="M339.82 231.06C339.82 237.766 286.734 243.203 221.25 243.203C155.765 243.203 102.68 237.766 102.68 231.06C102.68 224.354 155.766 218.917 221.25 218.917C286.735 218.917 339.82 224.353 339.82 231.06Z" fill="#C8D0D3"/>
<path d="M99.46 186.42L116.246 184.991L118.053 171.629L178.031 166.42L281.241 182.134L328.26 125.712C334.194 117.186 337.961 120.367 342.075 122.671C343.892 123.687 344.448 127.181 344.119 128.572C340.017 145.952 330.605 147.92 328.216 147.295L311.956 216.42C312.34 226.928 304.623 235.51 298.146 235.118L288.092 234.508C275.44 233.741 275.713 220.012 275.062 212.975L241.956 214.278C239.934 218.479 236.011 226.322 231.029 226.547L218.028 227.135L195.528 215.349L181.599 214.634C179.747 211.288 175.193 208.969 171.242 206.42L121.956 210.349C115.766 210.842 118.263 202.227 116.956 197.492L98.908 199.277L99.46 186.42Z" fill="#0F0E0D"/>
<path d="M205.03 185.88C208.398 187.031 211.386 189.283 215.887 191.436C218.49 200.466 222.975 208.034 223.589 218.584C222.705 230.367 218.404 239.092 207.915 239.092H203.921C195.582 239.092 192.558 229.999 190.307 225.102C185.688 215.055 185.479 198.607 188.987 191.281C191.219 186.622 197.397 183.272 205.031 185.881L205.03 185.88Z" fill="url(#paint0_radial)"/>
<path d="M188.11 196.11C190.113 190.446 196.65 189.907 200.737 191.691C209.323 195.436 212.141 208.083 211.975 217.45C211.837 225.242 209.567 237.293 201.873 238.537C196.966 239.33 193.624 232.307 191.519 227.804C187.019 218.178 184.567 206.128 188.11 196.11L188.11 196.11Z" fill="url(#paint1_radial)"/>
<path d="M195.56 194.97C201.67 196.575 204.897 204.37 206.419 210.501C207.982 216.799 209.048 225.719 204.02 229.82C201.533 231.848 197.053 230.902 194.423 229.062C190.442 226.277 189.246 220.583 188.363 215.804C187.274 209.915 186.149 202.838 189.499 197.874C190.752 196.017 193.393 194.401 195.56 194.97L195.56 194.97Z" fill="url(#paint2_radial)"/>
<path d="M203.01 214.9C203.362 213.9 204.242 213.99 204.878 214.666C205.635 215.469 205.778 218.013 205.346 218.637C204.207 220.278 202.775 219.836 202.776 218.637C202.777 217.647 202.654 215.91 203.01 214.9L203.01 214.9Z" fill="url(#paint3_radial)"/>
<path d="M199.1 202.67C198.92 201.806 199.585 201.491 200.33 201.698C201.215 201.944 202.414 203.694 202.375 204.325C202.271 205.985 201.061 206.287 200.545 205.433C200.119 204.727 199.282 203.543 199.1 202.67V202.67Z" fill="url(#paint4_radial)"/>
<path d="M201.85 225.75C202.711 225.556 203.036 226.216 202.842 226.964C202.61 227.853 200.879 229.08 200.248 229.051C198.586 228.974 198.265 227.769 199.111 227.239C199.81 226.802 200.98 225.946 201.85 225.75V225.75Z" fill="url(#paint5_radial)"/>
<path d="M191.19 202.34C190.586 202.758 190.164 202.293 190.115 201.6C190.056 200.776 191.051 199.224 191.539 199.063C192.825 198.639 193.387 199.569 192.883 200.268C192.466 200.846 191.8 201.917 191.19 202.34V202.34Z" fill="url(#paint6_radial)"/>
<path d="M177.75 0.390015H219.671C226.232 0.390015 259.744 8.2078 276.24 13.522C282.883 15.662 290.62 24.362 291.602 35.276C292.22 42.1511 292.915 49.065 292.612 55.479C296.653 57.0141 300.693 60.7102 304.734 64.0653L181.794 65.5446L164.116 174.135C149.374 172.767 129.722 173.193 118.413 174.962C109.405 176.37 101.036 174.499 92.9012 179.185C76.5292 135.196 67.2602 82.0893 70.6782 37.2553C85.8232 15.6863 144.372 2.19534 177.758 0.384338L177.75 0.390015Z" fill="url(#paint7_linear)"/>
<path d="M177.75 0.390001C191.732 0.381001 206.573 -0.485799 219.671 0.390001C227.465 0.911111 259.744 8.20779 276.24 13.522C282.883 15.662 289.906 20.7903 290.887 31.705C291.505 38.5801 293.808 55.137 293.504 61.551C292.699 51.17 289.342 25.519 282.524 22.919C255.045 12.442 208.45 8.11199 187.339 8.81099C175.48 9.2039 164.02 11.7344 163.022 31.959C162.543 41.6631 166.274 172.659 164.991 172.709L162.978 172.786C161.692 172.834 157.71 57.9856 157.593 28.2156C157.563 20.3772 149.502 12.9156 137.592 15.8506C112.378 22.0646 74.8755 28.0336 73.7035 45.5476C70.7394 89.8316 85.3395 160.288 96.1395 177.828C119.399 172.589 141.33 171.712 162.938 171.901L163.085 172.849C138.792 172.408 116.001 174.386 92.8977 179.183C76.5257 135.194 67.2567 82.087 70.6747 37.253C85.8197 15.684 144.369 2.19297 177.755 0.381975L177.75 0.390001Z" fill="#858482"/>
<path d="M168.75 195.35C158.34 170.73 157.66 90.04 171.96 53.92C177.13 40.86 220.35 28.48 290.89 52.49C302.196 57.6568 329.589 80.726 327.676 141.419C335.32 151.465 336.934 162.803 331.247 175.705C331.077 183.038 330.556 189.88 328.033 193.919C331.34 201.864 329.122 207.638 319.104 210.348C320.626 215.118 317.195 216.917 314.104 218.919C283.354 217.725 253.47 216.638 219.105 214.991C212.644 214.966 208.091 206.317 207.675 195.17C206.776 171.07 189.259 172.007 186.334 187.096C185.4 191.915 184.916 195.081 185.175 201.777C178.747 200.348 173.27 198.205 168.746 195.348L168.75 195.35Z" fill="url(#paint8_linear)"/>
<g filter="url(#filter0_f)">
<path d="M220.88 189.96C231.437 193.709 243.106 190.727 253.614 194.693C268.821 197.514 284.375 196.582 299.728 197.755C305.291 197.667 310.86 197.685 316.414 198.048C319.333 196.927 327.063 194.273 326.618 199.671C321.58 201.147 316.055 199.182 311.187 201.514C299.578 203.559 288.266 198.162 276.644 199.233C265.458 198.949 254.69 195.262 243.522 194.791C242.147 196.621 242.494 200.742 238.914 199.066C233.507 198.089 228.055 197.848 222.596 197.62C219.628 196.975 214.279 197.051 213.027 194.85C216.074 192.765 223.05 199.363 223.495 192.669C223.305 191.338 222.218 190.176 220.881 189.96H220.88Z" fill="#FDDC51"/>
</g>
<g filter="url(#filter1_f)">
<path d="M181.54 192.32C176.772 169.884 203.893 161.32 208.967 181.67" stroke="#B07800" stroke-width="2" stroke-linecap="round" stroke-linejoin="round"/>
</g>
<g filter="url(#filter2_f)">
<path d="M168.08 183.75C172.692 185.718 176.94 185.306 182.009 185.446C181.675 190.685 180.886 194.762 180.848 199.464C177.015 198.593 173.793 196.804 170.402 195.268L168.08 183.75Z" fill="#DAA814"/>
</g>
<g filter="url(#filter3_f)">
<path d="M164.16 169.91C170.791 172.39 178.779 173.74 188.267 173.839C184.51 176.595 184.138 179.916 183.088 183.124C176.69 183.823 171.042 182.644 165.588 180.981L164.16 169.91Z" fill="#DAA814"/>
</g>
<g filter="url(#filter4_f)">
<path d="M212.35 124.13L238.361 120.847L257.301 119.584L272.201 120.342L283.818 122.867L306.041 127.666L310.587 129.181C314.047 140.377 314.624 151.632 313.365 162.769C313.042 165.625 311.274 168.49 307.809 169.082C267.196 176.021 287.943 184.066 278.009 191.558C275.44 191.298 272.491 191.893 271.19 188.78C269.075 182.555 267.497 176.149 266.392 169.587L245.684 170.345L243.411 167.567L236.34 165.547C230.611 149.025 212.923 128.343 212.728 126.909L212.35 124.13Z" fill="url(#paint9_linear)"/>
</g>
<g filter="url(#filter5_f)">
<path d="M221.95 127.42L230.031 126.662L238.87 137.521L229.779 137.774L221.95 127.42Z" fill="#FCF2A9"/>
</g>
<g opacity="0.97133" filter="url(#filter6_f)">
<path d="M248.97 132.47C248.97 135.12 246.822 137.268 244.172 137.268C241.522 137.268 239.374 135.12 239.374 132.47C239.374 129.82 241.522 127.672 244.172 127.672C246.822 127.672 248.97 129.82 248.97 132.47Z" fill="#FCF2A9"/>
</g>
<path d="M129.28 186.42L159.101 184.099L167.589 210.441C165.581 216.871 161.342 227.692 155.699 230.715C153.115 232.099 149.813 231.692 146.571 230.579C142.699 234.146 136.119 235.876 131.378 234.098C121.317 230.325 120.356 211.996 120.53 203.741L129.28 186.42Z" fill="url(#paint10_linear)"/>
<path d="M121.43 196.96C126.895 177.38 137.744 189.279 139.7 197.866C141.455 205.569 141.755 213.847 140.894 221.782C140.264 227.587 133.939 233.083 129.195 231.372C123.716 229.397 120.246 218.388 120.534 209.586C120.67 205.437 120.321 200.931 121.43 196.96L121.43 196.96Z" fill="url(#paint11_radial)"/>
<path d="M128.39 173.03L164.997 172.673L171.604 207.673C172.029 209.925 171.75 212.601 166.783 212.673L142.133 213.033C139.183 212.742 139.007 211.429 138.74 210.176C135.996 197.281 139.86 180.446 128.383 173.033L128.39 173.03Z" fill="#2B2B2B"/>
<path d="M132.76 173.76L143.593 174.459C145.575 184.274 140.087 196.803 138.389 205.614C138.664 194.867 137.645 180.617 132.76 173.76L132.76 173.76Z" fill="url(#paint12_radial)"/>
<g filter="url(#filter7_f)">
<path d="M215.13 131.46C222.459 141.339 231.909 146.445 235.586 164.542C230.881 163.725 231.222 167.45 229.525 169.34C228.051 163.806 228.304 158.147 222.454 152.925C225.587 154.817 228.717 156.713 230.535 160.249C228.124 148.474 220.536 140.839 215.13 131.46L215.13 131.46Z" fill="#FCF2A9"/>
</g>
<path d="M81.15 41.53C86.5324 39.9411 90.1962 38.8659 95.138 37.5333C96.791 37.0875 98.5146 37.9236 96.1747 38.6548C90.8815 40.0524 85.2997 41.6186 79.9917 42.959C78.9586 42.93 80.1194 41.8344 81.1506 41.53H81.15Z" fill="#0E0E0E"/>
<path d="M81.15 58.63C86.5324 57.0411 90.1962 55.9659 95.138 54.6333C96.791 54.1875 98.5146 55.0236 96.1747 55.7548C90.8815 57.1524 85.2997 58.7186 79.9917 60.059C78.9586 60.03 80.1194 58.9344 81.1506 58.63H81.15Z" fill="#0E0E0E"/>
<path d="M81.15 49.75C86.5324 48.1611 90.1962 47.0859 95.138 45.7533C96.791 45.3075 98.5146 46.1436 96.1747 46.8748C90.8815 48.2724 85.2997 49.8386 79.9917 51.179C78.9586 51.15 80.1194 50.0544 81.1506 49.75H81.15Z" fill="#0E0E0E"/>
<path d="M22.44 30.7C36.264 30.3966 44.379 48.746 64.361 44.085C42.106 40.7472 40.194 25.74 22.44 30.7Z" fill="#C8D0D3"/>
<path d="M6.28 42.82C30.344 44.1461 38.809 62.919 63.101 55.194C42.368 56.2382 27.595 36.897 6.28 42.82V42.82Z" fill="#C8D0D3"/>
<path d="M13.86 64.03C33.388 54.1508 38.078 69.8942 63.357 67.0605C37.847 75.7139 35.037 61.6263 13.86 64.03V64.03Z" fill="#C8D0D3"/>
<path d="M209.79 60.49C242.62 56.9228 279.532 57.1751 308.28 73.622C310.414 74.8429 311.718 77.2353 312.826 79.4304C319.356 92.3764 322.271 107.915 324.443 121.351L278.481 118.826L238.327 113.523L215.851 117.311L208.78 98.1178L204.992 69.0758L203.729 60.4895L209.79 60.49Z" fill="url(#paint13_linear)" stroke="black" stroke-width="1.5" stroke-linecap="round" stroke-linejoin="round"/>
<path d="M205.96 66.91C219.257 67.3681 231.125 66.4471 244.422 70.1138C246.234 70.6134 247.715 69.9241 247.681 68.4045L247.551 62.5645C265.164 60.8498 291.892 67.7627 310.543 76.2575C290.313 51.4665 213.56 46.0275 205.963 66.9096L205.96 66.91Z" fill="black"/>
<g filter="url(#filter8_f)">
<path d="M174.46 157.96C188.031 157.935 201.603 156.34 215.174 159.389" stroke="#B07800" stroke-width="2" stroke-linecap="round" stroke-linejoin="round"/>
</g>
<path d="M250.16 173.97C276.429 172.666 299.566 174.398 322.68 177.296C323.33 177.377 324.034 177.816 323.568 178.58C318.997 184.181 315.372 188.578 309.47 192.206C293.512 192.776 277.629 193.429 259.908 192.053C253.662 187.389 250.593 181.535 248.991 175.297C248.887 174.89 249.27 173.915 250.161 173.97L250.16 173.97Z" fill="url(#paint14_linear)"/>
<path d="M251.78 182.61L253.107 175.753L251.917 175.617L250.886 180.879L250.353 179.673L251.123 175.042L253.037 174.906L254.368 175.06L252.594 183.962L251.78 182.61ZM253.942 185.983L255.661 175.034L256.992 175.188L254.925 187.314L253.942 185.983ZM256.591 189.233L258.346 175.165L259.677 175.319L257.582 190.091L256.591 189.233ZM259.135 191.398L261.092 175.299L262.423 175.453L260.107 192.035L259.135 191.398ZM261.786 192.037L263.838 175.432L265.17 175.586L262.941 192.136L261.786 192.037ZM317.664 184.689L318.542 179.348L319.851 179.681L318.909 183.584L317.664 184.689ZM314.222 187.614L315.508 179.066L316.868 178.998L315.473 186.465L314.222 187.614ZM311.405 190.307L312.996 178.541L314.31 178.829L312.606 189.559L311.405 190.307ZM308.512 191.331L310.34 177.694L311.671 177.849L309.577 191.651L308.512 191.331ZM305.664 191.999L307.594 177.561L308.925 177.716L306.729 192.321L305.664 191.999ZM302.979 191.869L304.909 177.431L306.24 177.585L304.044 192.19L302.979 191.869ZM300.233 191.735L302.163 177.297L303.494 177.451L301.298 192.056L300.233 191.735ZM297.453 192.079L299.478 177.166L300.809 177.32L298.612 191.925L297.453 192.079ZM294.487 192.105L296.517 177.714L297.688 178.8L295.819 192.013L294.487 192.105ZM291.918 192.215L293.506 178.302L294.929 178.203L292.983 192.536L291.918 192.215ZM289.186 192.306L290.919 177.54L292.152 178.326L290.298 192.405L289.186 192.306ZM286.602 192.336L288.554 176.635L289.885 176.789L287.673 192.277L286.602 192.336ZM283.855 192.297L285.808 176.501L287.139 176.655L284.967 192.332L283.855 192.297ZM281.235 192.383L283.062 176.368L284.393 176.522L282.433 192.45L281.235 192.383ZM278.417 192.411L280.377 176.237L281.708 176.391L279.53 192.416L278.417 192.411ZM275.632 192.46L277.508 176.097L278.84 176.251L276.746 192.433L275.632 192.46ZM272.921 192.365L274.884 175.97L276.215 176.124L273.989 192.465L272.921 192.365ZM269.98 192.45L272.077 175.832L273.408 175.987L271.18 192.422L269.98 192.45ZM267.296 192.308L269.392 175.702L270.723 175.856L268.496 192.311L267.296 192.308ZM264.714 192.243L266.768 175.575L268.099 175.729L265.742 192.185L264.714 192.243Z" fill="url(#paint15_linear)"/>
<path d="M250.19 173.1C277.023 171.736 300.656 173.548 324.265 176.579C324.929 176.665 325.446 177.076 325.173 177.923C324.614 179.654 323.807 181.661 322.222 183.214C318.885 186.481 315.642 189.203 310.927 192.211C309.593 193.063 261.75 193.182 260.063 192.05C255.195 188.733 250.025 180.907 249.262 175.547L249.715 175.877C249.05 176.569 253.498 187.482 260.187 191.773C276.561 193.05 309.436 191.405 310.43 190.925C311.424 190.444 321.541 181.214 322.177 179.822C306.303 179.064 263.476 176.562 249.599 176.352L248.849 174.397C248.414 173.265 249.216 173.09 250.189 173.101L250.19 173.1Z" fill="black"/>
<path d="M250.16 173.97C276.429 172.666 299.566 174.398 322.68 177.296C323.33 177.377 323.836 177.77 323.568 178.58C323.022 180.234 322.232 182.153 320.68 183.637C317.413 186.76 314.238 189.362 309.622 192.238C308.315 193.052 261.478 193.166 259.826 192.084C255.06 188.913 249.999 181.433 249.252 176.309L249.695 176.624C249.044 177.286 253.399 187.717 259.947 191.818C275.977 193.039 308.162 191.467 309.135 191.007C310.108 190.548 320.013 181.725 320.636 180.394C305.096 179.67 263.168 177.278 249.582 177.078L248.848 175.21C248.422 174.127 249.208 173.96 250.16 173.97L250.16 173.97Z" fill="url(#paint16_linear)"/>
<g filter="url(#filter9_f)">
<path d="M165.89 147.96C189.883 148.592 217.597 145.284 230.89 157.246" stroke="#B07800" stroke-width="2" stroke-linecap="round" stroke-linejoin="round"/>
</g>
<path d="M248.51 196.21C273.914 216.373 286.079 220.366 314.285 206.599C292.088 206.726 268.501 203.464 249.679 195.996C250.213 195.653 251.942 195.93 253.274 196.178L253.52 195.326C252.193 195.151 248.107 193.816 245.657 197.577L246.224 198.118C246.717 197.13 248.069 196.329 248.509 196.209L248.51 196.21Z" fill="black"/>
<path d="M262.74 201.1C272.273 206.104 274.616 207.033 291.53 206.505C276.914 205.108 274.129 204.313 262.74 201.1Z" fill="#CCCCCC"/>
<path d="M275.75 212.26L296.738 212.51C289.866 214.613 282.098 214.868 275.75 212.26Z" fill="#E6E6E6"/>
<path d="M248.387 106.241C248.387 111.961 243.75 116.598 238.03 116.598C232.31 116.598 227.673 111.961 227.673 106.241C227.673 100.521 232.31 95.8844 238.03 95.8844C243.75 95.8844 248.387 100.521 248.387 106.241Z" fill="url(#paint17_radial)"/>
<path d="M243.832 105.972C243.832 109.031 241.352 111.511 238.293 111.511C235.234 111.511 232.754 109.031 232.754 105.972C232.754 102.913 235.234 100.433 238.293 100.433C241.352 100.433 243.832 102.913 243.832 105.972Z" fill="url(#paint18_radial)"/>
<path d="M236.128 105.443C236.128 106.442 235.319 107.251 234.32 107.251C233.321 107.251 232.511 106.441 232.511 105.443C232.511 104.444 233.321 103.634 234.32 103.634C235.319 103.634 236.128 104.444 236.128 105.443Z" fill="url(#paint19_radial)"/>
<path d="M178.99 63.63C181.412 63.6651 184.712 63.071 188.734 63.6733C193.498 64.3869 194.89 69.7394 196.277 75.1023C200.189 90.2293 202.523 105.999 203.019 121.888C203.246 129.152 197.607 130.273 193.189 131.214C187.204 132.488 180.74 128.817 175.877 125.103C174.381 123.96 172.744 122.298 172.663 120.46C171.901 103.293 173.023 82.4037 175.589 66.5227C175.827 65.0534 176.821 63.5987 178.99 63.6302L178.99 63.63Z" fill="url(#paint20_linear)"/>
<path d="M173.74 89.23L172.927 92.105C172.377 101.75 172.284 111.586 172.677 120.449C172.759 122.287 174.369 123.963 175.865 125.105C180.728 128.82 187.192 132.474 193.177 131.199C197.595 130.258 203.248 129.15 203.021 121.886C202.88 117.379 202.577 112.895 202.146 108.417C190.21 103.874 180.031 96.8775 173.74 89.2295L173.74 89.23Z" fill="url(#paint21_linear)"/>
<path d="M178.99 63.63C181.412 63.6651 184.712 63.071 188.734 63.6733C199.883 63.88 185.937 105.913 184.538 127.033C184.645 116.189 190.256 89.7383 191.777 71.8423C191.965 69.6253 191.404 66.8655 189.63 65.5221C187.435 63.8597 183.964 64.1275 181.382 65.0834C179.407 65.8144 177.704 67.5376 176.813 69.4454C169.305 85.5274 175.197 123.986 173.351 122.577C171.855 121.435 172.744 122.298 172.662 120.46C171.9 103.293 173.023 82.4039 175.589 66.5229C175.826 65.0536 176.82 63.5989 178.99 63.6304V63.63Z" fill="black"/>
<path d="M200.34 95.63C202.428 103.45 204.316 112.015 202.865 121.894C202.407 125.018 202.055 130.065 198.32 130.228L192.511 130.48C196.613 120.915 197.954 107.554 200.34 95.6304V95.63Z" fill="#262626"/>
<path d="M180.39 104.22C182.562 103.093 185.485 102.705 187.714 103.715C189.738 104.632 190.855 105.744 191.754 109.018C193.419 115.079 193.291 121.897 193.459 128.463C193.545 131.824 191.155 133.174 189.229 134.019C186.758 135.104 183.672 135.479 181.148 134.524C178.921 133.682 176.956 131.694 176.097 129.473C173.544 122.871 174.581 114.873 177.107 108.26C177.726 106.639 178.85 105.019 180.39 104.22V104.22Z" fill="url(#paint22_radial)"/>
<g filter="url(#filter10_f)">
<path d="M183.17 104.72C185.812 111.949 186.772 120.964 184.054 133.888C188.266 132.907 190.759 131.659 192.451 128.458C196.358 127.463 197.156 127.776 199.333 126.564L200.469 118.862C197.354 119.166 195.376 121.257 192.261 119.872C192.201 115.011 191.631 112.576 190.548 108.976C189.055 104.015 184.596 103.803 183.17 104.72Z" fill="url(#paint23_linear)"/>
</g>
<path d="M289.307 110.282C289.307 116.002 284.67 120.639 278.95 120.639C273.23 120.639 268.593 116.002 268.593 110.282C268.593 104.562 273.23 99.925 278.95 99.925C284.67 99.925 289.307 104.562 289.307 110.282Z" fill="url(#paint24_radial)"/>
<path d="M284.752 110.013C284.752 113.072 282.272 115.552 279.213 115.552C276.154 115.552 273.674 113.072 273.674 110.013C273.674 106.953 276.154 104.473 279.213 104.473C282.272 104.473 284.752 106.953 284.752 110.013Z" fill="url(#paint25_radial)"/>
<path d="M277.048 109.483C277.048 110.482 276.239 111.292 275.24 111.292C274.241 111.292 273.431 110.482 273.431 109.483C273.431 108.484 274.241 107.675 275.24 107.675C276.239 107.675 277.048 108.484 277.048 109.483Z" fill="url(#paint26_radial)"/>
<path d="M323.99 116.25L327.778 134.18C303.264 125.83 274.134 119.944 248.723 119.026C237.404 118.617 229.839 125.734 211.61 128.12L211.105 111.705C233.782 109.154 256.14 108.004 275.502 120.038C282.059 110.771 301.406 112.162 323.989 116.25L323.99 116.25Z" fill="url(#paint27_linear)"/>
<path d="M205.96 65.45C218.84 65.8561 231.719 65.3562 244.598 68.6067C246.353 69.0496 247.788 68.4386 247.755 67.0915L247.628 61.9145C264.688 60.3944 289.194 66.206 307.259 73.7365C287.664 51.7605 213.32 46.9385 205.959 65.4498L205.96 65.45Z" fill="url(#paint28_linear)"/>
<path d="M211.15 129.5C206.581 130.66 206.126 127.824 206.12 125.266C212.958 68.1144 191.593 45.1594 170.865 60.4604C172.325 56.08 172.917 54.9864 174.204 54.539C178.977 52.8789 186.868 53.9332 195.68 56.6635C202.263 58.7034 212.516 55.1753 213.168 54.8003C217.235 52.461 278.26 46.613 309.25 73.4473C278.069 59.5263 206.2 44.7183 206.26 72.5697C206.673 85.5997 212.292 109.143 212.855 109.728C214.939 117.458 218.23 121.728 223.521 121.469C239.645 117.145 259.741 117.898 275.276 120.102C294.178 122.782 312.145 128.668 327.959 133.8L328.212 136.072C315.021 130.68 300.215 127.467 285.028 124.708C284.05 124.531 283.554 124.827 283.513 125.466C283.429 126.774 283.344 128.026 283.26 129.001C283.044 129.382 282.738 129.628 282.187 129.507L279.219 129.001C275.599 118.386 240.076 120.71 239.065 124.708C235.951 124.372 213.906 128.799 211.149 129.499L211.15 129.5Z" fill="black"/>
<path d="M243.13 127.57C241.346 129.385 242.706 132.208 243.635 131.358C252.187 123.534 264.534 128.345 275.202 128.58C277.145 128.623 277.557 128.746 278.485 128.58C276.865 124.733 250.444 120.127 243.13 127.57V127.57Z" fill="black"/>
<path d="M288.33 130.09C286.124 130.268 284.527 132.072 288.835 132.615C288.835 132.615 297.831 132.391 314.846 135.898C315.511 136.035 317.618 134.682 315.856 134.131C304.672 130.633 296.536 129.428 288.329 130.09H288.33Z" fill="black"/>
<path d="M177.71 150.76L188.822 151.013V154.043L177.71 153.79V150.76Z" fill="url(#paint29_linear)"/>
<path d="M175.47 152.528C175.47 153.644 174.848 154.548 174.081 154.548C173.314 154.548 172.692 153.644 172.692 152.528C172.692 151.412 173.314 150.508 174.081 150.508C174.848 150.508 175.47 151.412 175.47 152.528Z" fill="url(#paint30_radial)"/>
<path opacity="0.22939" d="M215.6 77.37C213.816 79.1849 215.176 82.0082 216.105 81.1581C224.657 73.3342 237.004 78.1445 247.672 78.3802C249.615 78.4231 250.027 78.5462 250.955 78.3802C249.335 74.533 222.914 69.9266 215.6 77.37V77.37Z" fill="black"/>
<path opacity="0.22939" d="M258.54 77.37C256.757 79.1849 258.116 82.0082 259.045 81.1581C267.597 73.3342 279.944 78.1445 290.612 78.3802C292.555 78.4231 292.967 78.5462 293.895 78.3802C292.275 74.533 265.854 69.9266 258.54 77.37V77.37Z" fill="black"/>
<g opacity="0.97133" filter="url(#filter11_f)">
<path d="M194.3 164.57C197.486 161.534 199.94 159.44 207.782 163.677C212.5 166.226 218.914 172.43 223.139 181.891C224.533 185.014 222.568 186.616 221.085 186.623C219.672 186.63 218.487 185.841 217.514 183.945C214.408 177.889 207.462 171.266 205.728 169.481C202.27 165.921 198.002 164.972 194.511 166.043C194.037 166.188 193.413 165.414 194.299 164.57L194.3 164.57Z" fill="#FFFBB5"/>
</g>
<g filter="url(#filter12_f)">
<path d="M237.91 134.06C245.7 145.07 250.98 157.09 256.06 171C257.13 170.95 258.26 170.91 259.38 170.88C252.05 153.45 245.48 144.27 237.91 134.06ZM316.53 135.16C319.24 150.98 322.2 162.65 318.16 174.5C318.8 174.62 319.43 174.72 320.06 174.84C325.21 159.05 318.58 144.39 316.53 135.16Z" fill="url(#paint31_linear)"/>
</g>
</g>
<defs>
<filter id="filter0_f" x="211.771" y="188.704" width="116.122" height="14.5335" filterUnits="userSpaceOnUse" color-interpolation-filters="sRGB">
<feFlood flood-opacity="0" result="BackgroundImageFix"/>
<feBlend mode="normal" in="SourceGraphic" in2="BackgroundImageFix" result="shape"/>
<feGaussianBlur stdDeviation="0.628151" result="effect1_foregroundBlur"/>
</filter>
<filter id="filter1_f" x="177.412" y="166.592" width="35.1249" height="29.2973" filterUnits="userSpaceOnUse" color-interpolation-filters="sRGB">
<feFlood flood-opacity="0" result="BackgroundImageFix"/>
<feBlend mode="normal" in="SourceGraphic" in2="BackgroundImageFix" result="shape"/>
<feGaussianBlur stdDeviation="1.28465" result="effect1_foregroundBlur"/>
</filter>
<filter id="filter2_f" x="167.347" y="183.017" width="15.3954" height="17.1808" filterUnits="userSpaceOnUse" color-interpolation-filters="sRGB">
<feFlood flood-opacity="0" result="BackgroundImageFix"/>
<feBlend mode="normal" in="SourceGraphic" in2="BackgroundImageFix" result="shape"/>
<feGaussianBlur stdDeviation="0.366608" result="effect1_foregroundBlur"/>
</filter>
<filter id="filter3_f" x="163.298" y="169.048" width="25.8309" height="15.1433" filterUnits="userSpaceOnUse" color-interpolation-filters="sRGB">
<feFlood flood-opacity="0" result="BackgroundImageFix"/>
<feBlend mode="normal" in="SourceGraphic" in2="BackgroundImageFix" result="shape"/>
<feGaussianBlur stdDeviation="0.430959" result="effect1_foregroundBlur"/>
</filter>
<filter id="filter4_f" x="209.283" y="116.517" width="107.76" height="78.1082" filterUnits="userSpaceOnUse" color-interpolation-filters="sRGB">
<feFlood flood-opacity="0" result="BackgroundImageFix"/>
<feBlend mode="normal" in="SourceGraphic" in2="BackgroundImageFix" result="shape"/>
<feGaussianBlur stdDeviation="1.53356" result="effect1_foregroundBlur"/>
</filter>
<filter id="filter5_f" x="220.868" y="125.581" width="19.0831" height="13.2747" filterUnits="userSpaceOnUse" color-interpolation-filters="sRGB">
<feFlood flood-opacity="0" result="BackgroundImageFix"/>
<feBlend mode="normal" in="SourceGraphic" in2="BackgroundImageFix" result="shape"/>
<feGaussianBlur stdDeviation="0.54077" result="effect1_foregroundBlur"/>
</filter>
<filter id="filter6_f" x="238.292" y="126.59" width="11.7595" height="11.7594" filterUnits="userSpaceOnUse" color-interpolation-filters="sRGB">
<feFlood flood-opacity="0" result="BackgroundImageFix"/>
<feBlend mode="normal" in="SourceGraphic" in2="BackgroundImageFix" result="shape"/>
<feGaussianBlur stdDeviation="0.54077" result="effect1_foregroundBlur"/>
</filter>
<filter id="filter7_f" x="214.048" y="130.378" width="22.6191" height="40.0435" filterUnits="userSpaceOnUse" color-interpolation-filters="sRGB">
<feFlood flood-opacity="0" result="BackgroundImageFix"/>
<feBlend mode="normal" in="SourceGraphic" in2="BackgroundImageFix" result="shape"/>
<feGaussianBlur stdDeviation="0.54077" result="effect1_foregroundBlur"/>
</filter>
<filter id="filter8_f" x="170.977" y="154.038" width="47.6796" height="8.83321" filterUnits="userSpaceOnUse" color-interpolation-filters="sRGB">
<feFlood flood-opacity="0" result="BackgroundImageFix"/>
<feBlend mode="normal" in="SourceGraphic" in2="BackgroundImageFix" result="shape"/>
<feGaussianBlur stdDeviation="1.24135" result="effect1_foregroundBlur"/>
</filter>
<filter id="filter9_f" x="162.396" y="144.466" width="71.9874" height="16.2731" filterUnits="userSpaceOnUse" color-interpolation-filters="sRGB">
<feFlood flood-opacity="0" result="BackgroundImageFix"/>
<feBlend mode="normal" in="SourceGraphic" in2="BackgroundImageFix" result="shape"/>
<feGaussianBlur stdDeviation="1.24685" result="effect1_foregroundBlur"/>
</filter>
<filter id="filter10_f" x="181.844" y="102.969" width="19.9501" height="32.2446" filterUnits="userSpaceOnUse" color-interpolation-filters="sRGB">
<feFlood flood-opacity="0" result="BackgroundImageFix"/>
<feBlend mode="normal" in="SourceGraphic" in2="BackgroundImageFix" result="shape"/>
<feGaussianBlur stdDeviation="0.662792" result="effect1_foregroundBlur"/>
</filter>
<filter id="filter11_f" x="192.301" y="159.736" width="32.8653" height="28.4381" filterUnits="userSpaceOnUse" color-interpolation-filters="sRGB">
<feFlood flood-opacity="0" result="BackgroundImageFix"/>
<feBlend mode="normal" in="SourceGraphic" in2="BackgroundImageFix" result="shape"/>
<feGaussianBlur stdDeviation="0.775345" result="effect1_foregroundBlur"/>
</filter>
<filter id="filter12_f" x="236.145" y="132.295" width="87.5967" height="44.3094" filterUnits="userSpaceOnUse" color-interpolation-filters="sRGB">
<feFlood flood-opacity="0" result="BackgroundImageFix"/>
<feBlend mode="normal" in="SourceGraphic" in2="BackgroundImageFix" result="shape"/>
<feGaussianBlur stdDeviation="0.882356" result="effect1_foregroundBlur"/>
</filter>
<radialGradient id="paint0_radial" cx="0" cy="0" r="1" gradientUnits="userSpaceOnUse" gradientTransform="translate(192.461 215.546) rotate(0.874063) scale(29.2328 30.114)">
<stop stop-color="#5B5B5B"/>
<stop offset="0.72978" stop-color="#171717"/>
<stop offset="1" stop-color="#464646"/>
</radialGradient>
<radialGradient id="paint1_radial" cx="0" cy="0" r="1" gradientUnits="userSpaceOnUse" gradientTransform="translate(192.737 215.82) rotate(1.16734) scale(18.5925 23.9067)">
<stop stop-color="#0B0B0B"/>
<stop offset="0.8584" stop-color="#0A0A0A"/>
<stop offset="1" stop-color="#161517"/>
</radialGradient>
<radialGradient id="paint2_radial" cx="0" cy="0" r="1" gradientUnits="userSpaceOnUse" gradientTransform="translate(192.56 215.077) scale(10.226 18.054)">
<stop stop-color="#8E9094"/>
<stop offset="1" stop-color="#EFEFEF"/>
</radialGradient>
<radialGradient id="paint3_radial" cx="0" cy="0" r="1" gradientUnits="userSpaceOnUse" gradientTransform="translate(203.99 217.004) scale(1.6004 2.96233)">
<stop stop-color="#3A373B"/>
<stop offset="1" stop-color="#111012"/>
</radialGradient>
<radialGradient id="paint4_radial" cx="0" cy="0" r="1" gradientUnits="userSpaceOnUse" gradientTransform="translate(200.721 203.77) rotate(-28.204) scale(1.80671 1.98362)">
<stop stop-color="#3A373B"/>
<stop offset="1" stop-color="#111012"/>
</radialGradient>
<radialGradient id="paint5_radial" cx="0" cy="0" r="1" gradientUnits="userSpaceOnUse" gradientTransform="translate(200.775 227.387) rotate(52.8584) scale(1.17607 1.82189)">
<stop stop-color="#3A373B"/>
<stop offset="1" stop-color="#111012"/>
</radialGradient>
<radialGradient id="paint6_radial" cx="0" cy="0" r="1" gradientUnits="userSpaceOnUse" gradientTransform="translate(191.594 200.728) rotate(-47.3167) scale(1.62575 0.906945)">
<stop stop-color="#3A373B"/>
<stop offset="1" stop-color="#111012"/>
</radialGradient>
<linearGradient id="paint7_linear" x1="82.6" y1="87.77" x2="307.56" y2="44.84" gradientUnits="userSpaceOnUse">
<stop stop-color="#F6F6F6"/>
<stop offset="1" stop-color="#C0C0BC"/>
</linearGradient>
<linearGradient id="paint8_linear" x1="230.35" y1="43.88" x2="230.36" y2="208.88" gradientUnits="userSpaceOnUse">
<stop stop-color="#FAC203"/>
<stop offset="1" stop-color="#FFCC1B"/>
</linearGradient>
<linearGradient id="paint9_linear" x1="212.35" y1="155.58" x2="313.98" y2="155.58" gradientUnits="userSpaceOnUse">
<stop stop-color="#F7D152"/>
<stop offset="1" stop-color="#FDF8B8"/>
</linearGradient>
<linearGradient id="paint10_linear" x1="145.71" y1="194.1" x2="146.78" y2="226.24" gradientUnits="userSpaceOnUse">
<stop stop-color="#100F11"/>
<stop offset="1" stop-color="#313131"/>
</linearGradient>
<radialGradient id="paint11_radial" cx="0" cy="0" r="1" gradientUnits="userSpaceOnUse" gradientTransform="translate(131.127 209.162) rotate(-6.04211) scale(10.7361 22.7935)">
<stop stop-color="#595959"/>
<stop offset="0.098446" stop-color="#989898"/>
<stop offset="0.55756" stop-color="#D9D9DA"/>
<stop offset="0.67756" stop-color="#0C0C0C"/>
<stop offset="0.69718" stop-color="#0C0C0C"/>
<stop offset="1" stop-color="#2F2F2F"/>
</radialGradient>
<radialGradient id="paint12_radial" cx="0" cy="0" r="1" gradientUnits="userSpaceOnUse" gradientTransform="translate(139.091 184.294) rotate(-8.3839) scale(2.59015 11.9645)">
<stop stop-color="white"/>
<stop offset="1" stop-color="#1A1A1A" stop-opacity="0"/>
</radialGradient>
<linearGradient id="paint13_linear" x1="203.72" y1="89.9989" x2="324.46" y2="89.9989" gradientUnits="userSpaceOnUse">
<stop stop-color="#7F807A"/>
<stop offset="0.19665" stop-color="#DDD9CB"/>
<stop offset="1" stop-color="white"/>
</linearGradient>
<linearGradient id="paint14_linear" x1="248.804" y1="183.455" x2="323.581" y2="184.746" gradientUnits="userSpaceOnUse">
<stop stop-color="#1F221F"/>
<stop offset="1" stop-color="#1E1E1C"/>
</linearGradient>
<linearGradient id="paint15_linear" x1="282.59" y1="176.253" x2="280.26" y2="192.292" gradientUnits="userSpaceOnUse">
<stop stop-color="#363636"/>
<stop offset="0.27159" stop-color="#B2B2B2"/>
<stop offset="0.66264" stop-color="#818181"/>
<stop offset="1" stop-color="#D4D4D4"/>
</linearGradient>
<linearGradient id="paint16_linear" x1="248.556" y1="183.487" x2="323.512" y2="184.782" gradientUnits="userSpaceOnUse">
<stop stop-color="#E3EBED"/>
<stop offset="1" stop-color="#BABEB4"/>
</linearGradient>
<radialGradient id="paint17_radial" cx="0" cy="0" r="1" gradientUnits="userSpaceOnUse" gradientTransform="translate(238.374 97.708) rotate(123.176) scale(18.2284 19.0598)">
<stop stop-color="#4C5C80"/>
<stop offset="1" stop-color="#A4BAC7"/>
</radialGradient>
<radialGradient id="paint18_radial" cx="0" cy="0" r="1" gradientUnits="userSpaceOnUse" gradientTransform="translate(238.291 105.972) scale(5.6463)">
<stop stop-color="#000710"/>
<stop offset="1" stop-color="#191F27"/>
</radialGradient>
<radialGradient id="paint19_radial" cx="0" cy="0" r="1" gradientUnits="userSpaceOnUse" gradientTransform="translate(234.319 105.443) scale(1.80864)">
<stop stop-color="#8194AB"/>
<stop offset="1" stop-color="#8194AB" stop-opacity="0"/>
</radialGradient>
<linearGradient id="paint20_linear" x1="185.32" y1="102.441" x2="185.52" y2="68.8706" gradientUnits="userSpaceOnUse">
<stop stop-color="#BEBEBE"/>
<stop offset="1" stop-color="#808080"/>
</linearGradient>
<linearGradient id="paint21_linear" x1="184.32" y1="100.901" x2="184.02" y2="127.421" gradientUnits="userSpaceOnUse">
<stop stop-color="#666666"/>
<stop offset="1" stop-color="#ABABAB"/>
</linearGradient>
<radialGradient id="paint22_radial" cx="0" cy="0" r="1" gradientUnits="userSpaceOnUse" gradientTransform="translate(179.174 107.765) rotate(84.2905) scale(24.048 15.8586)">
<stop stop-color="#9C9C9C"/>
<stop offset="0.13269" stop-color="#909090"/>
<stop offset="0.5282" stop-color="#262626"/>
<stop offset="1" stop-color="#262626"/>
</radialGradient>
<linearGradient id="paint23_linear" x1="183.05" y1="119.307" x2="200.55" y2="119.307" gradientUnits="userSpaceOnUse">
<stop stop-color="#ABABAB"/>
<stop offset="1" stop-color="#262626"/>
</linearGradient>
<radialGradient id="paint24_radial" cx="0" cy="0" r="1" gradientUnits="userSpaceOnUse" gradientTransform="translate(279.294 101.749) rotate(123.176) scale(18.2284 19.0598)">
<stop stop-color="#4C5C80"/>
<stop offset="1" stop-color="#A4BAC7"/>
</radialGradient>
<radialGradient id="paint25_radial" cx="0" cy="0" r="1" gradientUnits="userSpaceOnUse" gradientTransform="translate(279.211 110.013) scale(5.6463)">
<stop stop-color="#000710"/>
<stop offset="1" stop-color="#191F27"/>
</radialGradient>
<radialGradient id="paint26_radial" cx="0" cy="0" r="1" gradientUnits="userSpaceOnUse" gradientTransform="translate(275.239 109.483) scale(1.80864)">
<stop stop-color="#8194AB"/>
<stop offset="1" stop-color="#8194AB" stop-opacity="0"/>
</radialGradient>
<linearGradient id="paint27_linear" x1="210.61" y1="122.11" x2="328.23" y2="122.11" gradientUnits="userSpaceOnUse">
<stop stop-color="#5B5A60"/>
<stop offset="1" stop-color="#B2ABAA"/>
</linearGradient>
<linearGradient id="paint28_linear" x1="205.96" y1="64.418" x2="300.55" y2="64.418" gradientUnits="userSpaceOnUse">
<stop stop-color="#5B5A60"/>
<stop offset="1" stop-color="#B2ABAA"/>
</linearGradient>
<linearGradient id="paint29_linear" x1="182.87" y1="151.008" x2="182.87" y2="152.648" gradientUnits="userSpaceOnUse">
<stop stop-color="#E3EBED"/>
<stop offset="1" stop-color="#BABEB4"/>
</linearGradient>
<radialGradient id="paint30_radial" cx="0" cy="0" r="1" gradientUnits="userSpaceOnUse" gradientTransform="translate(174.112 152.542) rotate(0.723308) scale(6.21075 6.03979)">
<stop stop-color="#E3EBED"/>
<stop offset="1" stop-color="#BABEB4"/>
</radialGradient>
<linearGradient id="paint31_linear" x1="247.93" y1="159.82" x2="323.05" y2="160.72" gradientUnits="userSpaceOnUse">
<stop stop-color="#DAAB09"/>
<stop offset="1" stop-color="#FDEFA4"/>
</linearGradient>
<clipPath id="clip0">
<rect width="344.22" height="243.21" fill="white"/>
</clipPath>
</defs>
</svg>
